<svg xmlns="http://www.w3.org/2000/svg" width="124.651" height="125.315" viewBox="0 0 124.651 125.315"><defs><style>.a{fill:#6d6c6c;}</style></defs><g transform="translate(0)"><rect class="a" width="4.155" height="4.155" transform="translate(29.085 48.447)"/><rect class="a" width="4.155" height="4.155" transform="translate(49.86 48.447)"/><path class="a" d="M124.868,73l-8.117-1.159a29.08,29.08,0,0,0-1.365-3.324l4.911-6.548a2.078,2.078,0,0,0-.193-2.715l-8.815-8.815a2.055,2.055,0,0,0-1.259-.588v-20a16.62,16.62,0,0,0,6.233-12.966,16.448,16.448,0,0,0-9.5-15.008A2.078,2.078,0,0,0,103.8,3.757V15.391l-4.155,1.386-4.155-1.386V3.757a2.078,2.078,0,0,0-2.965-1.87,16.448,16.448,0,0,0-9.5,15,16.62,16.62,0,0,0,6.233,12.966V43.895H83.023a2.078,2.078,0,0,0-2.057,1.783l-1.344,9.409,4.113.588,1.089-7.624h8.863l1.089,7.624a2.078,2.078,0,0,0,1.475,1.7,24.8,24.8,0,0,1,4.986,2.05,2.078,2.078,0,0,0,2.246-.16l6.152-4.612,6.266,6.266-4.622,6.152a2.078,2.078,0,0,0-.16,2.246,24.8,24.8,0,0,1,2.05,4.986,2.078,2.078,0,0,0,1.7,1.475l7.624,1.089v8.863l-7.624,1.089a2.078,2.078,0,0,0-1.7,1.475,24.8,24.8,0,0,1-2.05,4.986,2.077,2.077,0,0,0,.16,2.246l4.612,6.152-6.266,6.266-6.147-4.629a2.078,2.078,0,0,0-2.246-.16,24.8,24.8,0,0,1-4.986,2.05,2.077,2.077,0,0,0-1.475,1.7l-1.082,7.629H85.1v-8.786a23.06,23.06,0,0,0-.935-6.484A18.926,18.926,0,1,0,70.882,84.589c-.05-.021-.1-.046-.147-.064l-16.8-6.719V74.613a23.038,23.038,0,0,0,7.228-5.788H66.4a6.233,6.233,0,0,0,6.233-6.233V58.055A6.233,6.233,0,0,0,76.79,52.2V45.972a6.233,6.233,0,0,0-4.155-5.85v-2.46a29.085,29.085,0,1,0-58.17,0v2.46a6.233,6.233,0,0,0-4.155,5.85V52.2a6.233,6.233,0,0,0,6.233,6.233H20.7c.133,0,.262-.021.393-.029a22.9,22.9,0,0,0,12.072,16.2v3.193l-16.8,6.719A22.747,22.747,0,0,0,2,105.744v19.173A2.078,2.078,0,0,0,4.078,127H83.023a2.078,2.078,0,0,0,2.078-2.077v-6.233H95.488a2.078,2.078,0,0,0,2.057-1.783l1.159-8.117a29.083,29.083,0,0,0,3.324-1.365l6.548,4.911a2.078,2.078,0,0,0,2.715-.193l8.815-8.815a2.078,2.078,0,0,0,.193-2.715l-4.911-6.548a29.086,29.086,0,0,0,1.365-3.324l8.117-1.159a2.077,2.077,0,0,0,1.78-2.055V75.057A2.078,2.078,0,0,0,124.868,73ZM102.016,55.159c-.1-.048-.208-.079-.305-.125V29.352H97.566V45.827l-.021-.15a2.078,2.078,0,0,0-2.057-1.783H93.411V28.812a2.078,2.078,0,0,0-.891-1.706A12.465,12.465,0,0,1,91.333,7.584v9.3a2.078,2.078,0,0,0,1.421,1.972l6.232,2.077a2.077,2.077,0,0,0,1.313,0l6.233-2.078a2.078,2.078,0,0,0,1.421-1.972v-9.3a12.465,12.465,0,0,1-1.186,19.529,2.078,2.078,0,0,0-.891,1.7V52.273ZM74.713,81.29a14.646,14.646,0,1,1,6.924,12.342,22.678,22.678,0,0,0-5.424-5.977,14.2,14.2,0,0,1-1.5-6.366ZM66.4,64.67H63.881a22.645,22.645,0,0,0,2.129-6.262c.131,0,.26.029.393.029H68.48v4.155A2.078,2.078,0,0,1,66.4,64.67ZM62.248,41.817a6.264,6.264,0,0,1-4.986-2.493l-3.74-4.986a2.077,2.077,0,0,0-1.4-.814,2.1,2.1,0,0,0-1.56.438l-6.972,5.57a10.425,10.425,0,0,1-6.48,2.285H24.853V39.74a18.7,18.7,0,0,1,37.4,0ZM72.635,52.2a2.078,2.078,0,0,1-2.078,2.078H66.4V43.895h4.155a2.078,2.078,0,0,1,2.078,2.078ZM43.55,12.732a24.957,24.957,0,0,1,24.93,24.93V39.74H66.4a22.853,22.853,0,0,0-45.705,0H18.62V37.662a24.957,24.957,0,0,1,24.93-24.93ZM16.543,54.282A2.078,2.078,0,0,1,14.465,52.2V45.972a2.078,2.078,0,0,1,2.078-2.078H20.7V54.282Zm8.31,0v-8.31H37.11a14.592,14.592,0,0,0,9.083-3.187l5.3-4.24,2.445,3.272a10.44,10.44,0,0,0,8.31,4.155v8.31A18.587,18.587,0,0,1,59.086,64.67H43.55v4.155H55.276A18.679,18.679,0,0,1,24.853,54.282Zm18.7,22.853a22.782,22.782,0,0,0,6.233-.885v2.963a6.233,6.233,0,0,1-12.465,0V76.25a22.783,22.783,0,0,0,6.233.885Zm37.4,45.705H68.48V99.988H64.325V122.84H22.775V99.988H18.62V122.84H6.155v-17.1A18.61,18.61,0,0,1,17.91,88.383L33.622,82.1a10.321,10.321,0,0,0,19.857,0l15.712,6.284a18.61,18.61,0,0,1,11.755,17.362Z" transform="translate(-2 -1.68)"/><rect class="a" width="4.155" height="4.155" transform="translate(85.178 50.525)"/><rect class="a" width="4.155" height="4.155" transform="translate(85.178 104.54)"/><rect class="a" width="4.155" height="4.155" transform="translate(103.413 98.707) rotate(-45)"/><rect class="a" width="4.155" height="4.155" transform="translate(112.186 77.532)"/><rect class="a" width="4.155" height="4.155" transform="translate(103.414 60.513) rotate(-45)"/></g></svg>