<?xml version="1.0" encoding="utf-8"?>
<!-- Generator: Adobe Illustrator 24.1.1, SVG Export Plug-In . SVG Version: 6.00 Build 0)  -->
<svg version="1.1" id="Layer_1" xmlns="http://www.w3.org/2000/svg" xmlns:xlink="http://www.w3.org/1999/xlink" x="0px" y="0px"
	 viewBox="0 0 631.43 184.29" style="enable-background:new 0 0 631.43 184.29;" xml:space="preserve">
<style type="text/css">
	.st0{fill:#FFFFFF;}
	.st1{fill:#F3B11C;}
	.st2{font-family:'Lato-Light';}
	.st3{font-size:134.775px;}
	.st4{letter-spacing:-10;}
</style>
<g>
	<g>
		<g>
			<path class="st0" d="M43.51,35.13h18.56l20.33,63.83l20.33-63.83h18.56l-31.85,95.69H75.37L43.51,35.13z"/>
			<path class="st0" d="M143.58,128.21c-4.67-2.39-8.24-5.88-10.69-10.46c-2.46-4.58-3.69-10.1-3.69-16.55v-7.7
				c0-6.76,1.17-12.53,3.52-17.31c2.35-4.78,5.77-8.42,10.27-10.92c4.5-2.5,9.93-3.75,16.29-3.75c5.97,0,11.08,1.49,15.33,4.48
				c4.25,2.98,7.49,7.32,9.71,13c2.21,5.68,3.32,12.54,3.32,20.56v4.48h-46.72V91.86h30.27l-0.2-1.58c-0.48-3.95-1.72-7-3.72-9.15
				c-2-2.15-4.66-3.22-8-3.22c-4.34,0-7.71,1.29-10.1,3.88c-2.39,2.59-3.59,6.25-3.59,10.99v8.69c0,4.65,1.31,8.25,3.92,10.79
				c2.61,2.54,6.26,3.82,10.96,3.82c2.41,0,4.8-0.43,7.17-1.28s4.52-2.07,6.45-3.65l11.78,10.46c-3.55,3.25-7.55,5.76-11.98,7.53
				c-4.43,1.78-8.91,2.67-13.42,2.67C153.87,131.8,148.25,130.61,143.58,128.21z"/>
			<path class="st0" d="M203.43,62.51h19.35v68.31h-19.35V62.51z M238.64,79.55c-1.27-0.44-2.74-0.66-4.41-0.66
				c-3.64,0-6.46,1.17-8.46,3.52c-2,2.35-2.99,5.6-2.99,9.77l-1.38-17.77c1.89-4.08,4.33-7.25,7.34-9.51c3-2.26,6.31-3.39,9.9-3.39
				c2.85,0,5.43,0.45,7.73,1.35c2.3,0.9,4.31,2.23,6.02,3.98l-10.53,14.68C240.98,80.65,239.91,79.99,238.64,79.55z"/>
			<path class="st0" d="M269.53,128.31c-3.44-2.33-6.07-5.69-7.86-10.1c-1.8-4.41-2.7-9.73-2.7-15.96V91.33
				c0-6.27,0.9-11.65,2.7-16.12c1.8-4.48,4.42-7.87,7.86-10.2c3.44-2.32,7.58-3.49,12.4-3.49c3.64,0,6.96,1.09,9.97,3.26
				c3,2.17,5.43,5.25,7.27,9.25l-1.38,15.14c0-2.32-0.39-4.3-1.18-5.92c-0.79-1.62-1.94-2.86-3.46-3.72s-3.35-1.28-5.5-1.28
				c-3.38,0-6,1.15-7.86,3.45c-1.87,2.3-2.8,5.54-2.8,9.71v10.86c0,4.08,0.93,7.24,2.8,9.48c1.86,2.24,4.48,3.36,7.86,3.36
				c2.15,0,3.98-0.42,5.5-1.25c1.51-0.83,2.67-2.04,3.46-3.62c0.79-1.58,1.18-3.49,1.18-5.73l0.92,15.6
				c-1.4,3.73-3.55,6.61-6.45,8.65c-2.9,2.04-6.34,3.06-10.33,3.06C277.11,131.8,272.98,130.64,269.53,128.31z M270.59,155.72
				c-4.28-1.91-7.6-4.6-9.97-8.06l12.11-11.12c1.54,1.67,3.38,2.95,5.53,3.85c2.15,0.9,4.39,1.35,6.71,1.35
				c3.77,0,6.85-1.03,9.25-3.09c2.39-2.06,3.59-4.91,3.59-8.56V62.51h18.03v66.27c0,6.27-1.2,11.65-3.59,16.12
				c-2.39,4.48-5.88,7.87-10.46,10.2c-4.58,2.32-10.12,3.49-16.62,3.49C279.72,158.58,274.86,157.63,270.59,155.72z"/>
			<path class="st0" d="M346,128.21c-4.67-2.39-8.24-5.88-10.69-10.46c-2.46-4.58-3.68-10.1-3.68-16.55v-7.7
				c0-6.76,1.17-12.53,3.52-17.31c2.35-4.78,5.77-8.42,10.27-10.92c4.5-2.5,9.93-3.75,16.29-3.75c5.97,0,11.08,1.49,15.33,4.48
				c4.25,2.98,7.49,7.32,9.71,13c2.21,5.68,3.32,12.54,3.32,20.56v4.48h-46.72V91.86h30.27l-0.2-1.58c-0.48-3.95-1.72-7-3.72-9.15
				c-2-2.15-4.66-3.22-8-3.22c-4.34,0-7.71,1.29-10.1,3.88c-2.39,2.59-3.59,6.25-3.59,10.99v8.69c0,4.65,1.3,8.25,3.92,10.79
				c2.61,2.54,6.26,3.82,10.96,3.82c2.41,0,4.8-0.43,7.17-1.28s4.52-2.07,6.45-3.65l11.78,10.46c-3.55,3.25-7.55,5.76-11.98,7.53
				c-4.43,1.78-8.91,2.67-13.42,2.67C356.3,131.8,350.67,130.61,346,128.21z"/>
		</g>
	</g>
	<text transform="matrix(1 0 0 1 379.7938 130.8137)" class="st1 st2 st3 st4">Tech</text>
</g>
</svg>
