<?xml version="1.0" encoding="utf-8"?>
<!-- Generator: Adobe Illustrator 24.1.1, SVG Export Plug-In . SVG Version: 6.00 Build 0)  -->
<svg version="1.1" id="Layer_1" xmlns="http://www.w3.org/2000/svg" xmlns:xlink="http://www.w3.org/1999/xlink" x="0px" y="0px"
	 viewBox="0 0 792 724.29" style="enable-background:new 0 0 792 724.29;" xml:space="preserve">
<style type="text/css">
	.st0{fill:#FFFFFF;stroke:#FFFFFF;stroke-width:10;stroke-miterlimit:10;}
	.st1{fill:#CC892A;stroke:#CC892A;stroke-width:3;stroke-miterlimit:10;}
	.st2{fill:#CC892A;}
	.st3{fill:#FFFFFF;}
	.st4{fill:none;stroke:#CC892A;stroke-width:3;stroke-miterlimit:10;}
</style>
<g>
	<g>
		<g>
			<path class="st0" d="M166.81,380.58c69.85,13.95,86.15,6.14,121.18-54.07c39.54-67.98,79.05-135.99,118.88-203.81
				c24.63-41.94,65.21-55.09,102.25-33.75c36.62,21.1,46.88,64.15,23.17,105.36c-57.17,99.34-114.73,198.45-173.08,297.1
				c-32.6,55.12-93.39,55.32-126.8,0.98C210.69,457.07,190.38,420.89,166.81,380.58z"/>
			<path class="st1" d="M133.27,79.53c80.03-0.34,111.35,53.39,71.47,122.9c-18.44,32.13-38,63.65-55.73,96.16
				c-10.55,19.34-17.58,23.75-29.77,0.9c-17.42-32.67-37.24-64.05-55.88-96.07C23.13,134.3,53.88,79.87,133.27,79.53z"/>
		</g>
		<g>
			<g>
				<path class="st2" d="M421.45,473.09c0.2,26.26,13.44,42.55,32.98,42.55c19.14,0,25.65-10.79,29.32-19.14h10.38
					c-4.28,13.44-15.07,28.71-40.11,28.71c-30.95,0-42.96-26.67-42.96-52.53c0-29.11,14.46-54.16,44.18-54.16
					c31.35,0,41.33,27.08,41.33,46.22c0,2.85,0,5.7-0.2,8.35H421.45z M486,464.13c-0.2-20.16-11.2-36.04-31.15-36.04
					c-20.97,0-30.54,14.66-32.78,36.04H486z"/>
				<path class="st2" d="M511.24,448.66c0-17.1-0.2-24.43-0.2-27.69h9.98c0.2,3.26,0.41,9.77,0.41,22.8
					c5.9-15.27,18.93-24.43,35.43-25.25v10.99c-21.17,1.43-35.43,16.08-35.43,40.31v52.94h-10.18V448.66z"/>
				<path class="st2" d="M644.79,515.85c0,32.58-14.46,49.68-43.98,49.68c-26.47,0-37.46-14.86-39.91-30.34h10.38
					c3.67,14.05,15.27,20.77,29.93,20.77c26.47,0,33.8-17.1,33.8-42.96v-10.59c-5.5,13.23-15.47,20.36-34,20.36
					c-23.82,0-42.15-19.34-42.15-50.9c0-34.2,19.55-53.34,43.57-53.34c20.77,0,29.73,9.77,32.58,17.92
					c0.2-5.9,0.41-13.03,0.61-15.47h9.57c0,3.67-0.41,19.75-0.41,29.52V515.85z M569.67,471.46c0,24.23,12.83,41.74,32.37,41.74
					c25.45,0,33.19-16.9,33.19-43.37c0-26.88-8.14-41.74-32.58-41.74C579.24,428.1,569.67,448.25,569.67,471.46z"/>
				<path class="st2" d="M670.24,473.09c0.2,26.26,13.44,42.55,32.98,42.55c19.14,0,25.65-10.79,29.32-19.14h10.38
					c-4.28,13.44-15.07,28.71-40.11,28.71c-30.95,0-42.96-26.67-42.96-52.53c0-29.11,14.46-54.16,44.18-54.16
					c31.35,0,41.33,27.08,41.33,46.22c0,2.85,0,5.7-0.2,8.35H670.24z M734.78,464.13c-0.2-20.16-11.2-36.04-31.15-36.04
					c-20.97,0-30.54,14.66-32.78,36.04H734.78z"/>
			</g>
		</g>
		<g>
			<g>
				<path class="st3" d="M275.89,566.23h-23.43v-4.98h52.43v4.98h-23.53v64.8h-5.48V566.23z"/>
				<path class="st3" d="M309.78,606.7c0.1,12.86,6.58,20.83,16.15,20.83c9.37,0,12.56-5.28,14.35-9.37h5.08
					c-2.09,6.58-7.38,14.06-19.64,14.06c-15.15,0-21.03-13.06-21.03-25.72c0-14.25,7.08-26.52,21.63-26.52
					c15.35,0,20.24,13.26,20.24,22.63c0,1.4,0,2.79-0.1,4.09H309.78z M341.38,602.31c-0.1-9.87-5.48-17.64-15.25-17.64
					c-10.27,0-14.95,7.18-16.05,17.64H341.38z"/>
				<path class="st3" d="M390.43,616.37c-2.39,8.77-8.17,15.85-19.34,15.85c-12.46,0-21.33-9.27-21.33-25.92
					c0-13.66,7.28-26.32,21.93-26.32c12.66,0,17.84,8.97,18.74,15.95h-5.08c-1.5-5.78-5.28-11.26-13.76-11.26
					c-10.57,0-16.55,8.97-16.55,21.43c0,11.86,5.58,21.43,16.05,21.43c7.28,0,11.66-3.69,14.25-11.16H390.43z"/>
				<path class="st3" d="M401.99,557.56v32c2.79-5.18,7.68-9.57,16.45-9.57c7.08,0,16.85,3.59,16.85,19.34v31.7h-4.98v-30.7
					c0-9.87-4.49-15.45-12.76-15.45c-9.87,0-15.55,6.08-15.55,18.34v27.81h-4.98v-73.47H401.99z"/>
				<path class="st3" d="M446.65,593.74c0-4.39,0-8.57-0.1-12.56h4.88c0.2,1.59,0.3,8.07,0.2,9.47c2.19-5.08,6.28-10.67,16.55-10.67
					c8.87,0,16.75,4.98,16.75,18.74v32.3h-4.98v-31.5c0-8.87-3.69-14.65-12.36-14.65c-11.86,0-15.95,9.87-15.95,20.73v25.42h-4.98
					V593.74z"/>
				<path class="st3" d="M536.67,606c0,13.86-7.68,26.22-22.53,26.22c-13.46,0-21.83-11.07-21.83-26.12
					c0-14.25,7.88-26.12,22.33-26.12C527.89,579.99,536.67,590.35,536.67,606z M497.59,606.1c0,11.86,6.38,21.43,16.95,21.43
					c10.77,0,16.85-8.87,16.85-21.43c0-11.76-5.98-21.43-17.05-21.43C502.97,584.67,497.59,594.14,497.59,606.1z"/>
				<path class="st3" d="M544.04,631.02v-73.47h4.98v73.47H544.04z"/>
				<path class="st3" d="M600.76,606c0,13.86-7.68,26.22-22.53,26.22c-13.46,0-21.83-11.07-21.83-26.12
					c0-14.25,7.88-26.12,22.33-26.12C591.99,579.99,600.76,590.35,600.76,606z M561.69,606.1c0,11.86,6.38,21.43,16.95,21.43
					c10.77,0,16.85-8.87,16.85-21.43c0-11.76-5.98-21.43-17.05-21.43C567.07,584.67,561.69,594.14,561.69,606.1z"/>
				<path class="st3" d="M646.22,627.63c0,15.95-7.08,24.32-21.53,24.32c-12.96,0-18.34-7.28-19.54-14.85h5.08
					c1.79,6.88,7.48,10.17,14.65,10.17c12.96,0,16.55-8.37,16.55-21.03v-5.18c-2.69,6.48-7.58,9.97-16.65,9.97
					c-11.66,0-20.63-9.47-20.63-24.92c0-16.75,9.57-26.12,21.33-26.12c10.17,0,14.55,4.79,15.95,8.77c0.1-2.89,0.2-6.38,0.3-7.58
					h4.68c0,1.79-0.2,9.67-0.2,14.45V627.63z M609.44,605.9c0,11.86,6.28,20.44,15.85,20.44c12.46,0,16.25-8.27,16.25-21.23
					c0-13.16-3.99-20.44-15.95-20.44C614.12,584.67,609.44,594.54,609.44,605.9z"/>
				<path class="st3" d="M657.59,557.56h4.98v9.67h-4.98V557.56z M657.59,581.18h4.98v49.84h-4.98V581.18z"/>
				<path class="st3" d="M675.03,606.7c0.1,12.86,6.58,20.83,16.15,20.83c9.37,0,12.56-5.28,14.35-9.37h5.08
					c-2.09,6.58-7.38,14.06-19.64,14.06c-15.15,0-21.03-13.06-21.03-25.72c0-14.25,7.08-26.52,21.63-26.52
					c15.35,0,20.24,13.26,20.24,22.63c0,1.4,0,2.79-0.1,4.09H675.03z M706.63,602.31c-0.1-9.87-5.48-17.64-15.25-17.64
					c-10.27,0-14.95,7.18-16.05,17.64H706.63z"/>
				<path class="st3" d="M718.99,617.27c1.7,6.48,6.28,10.37,14.16,10.37c8.87,0,12.46-4.09,12.46-9.67
					c0-5.68-2.39-8.47-13.56-11.17c-12.86-3.09-16.05-6.98-16.05-13.56c0-6.88,5.18-13.26,16.45-13.26s16.65,6.88,17.45,13.96h-4.98
					c-0.9-4.19-4.19-9.37-12.66-9.37c-8.67,0-11.17,4.29-11.17,8.27c0,4.59,2.39,6.88,12.26,9.27c14.06,3.39,17.54,7.98,17.54,15.45
					c0,9.07-7.38,14.65-17.84,14.65c-11.36,0-17.74-5.98-19.14-14.95H718.99z"/>
			</g>
		</g>
	</g>
	<line class="st4" x1="277.52" y1="648.65" x2="489.69" y2="648.65"/>
</g>
</svg>
