<svg xmlns="http://www.w3.org/2000/svg" width="140.032" height="133.459" viewBox="0 0 140.032 133.459"><defs><style>.a{fill:#6d6c6c;}</style></defs><g transform="translate(0 0)"><g transform="translate(0 96.228)"><path class="a" d="M137.844,49.858H2.188a2.188,2.188,0,1,1,0-4.376H137.844a2.188,2.188,0,1,1,0,4.376Z" transform="translate(0 -45.482)"/></g><g transform="translate(4.374 63.5)"><path class="a" d="M107.016,58.955H4.187A2.186,2.186,0,0,1,2,56.767V32.712a2.186,2.186,0,0,1,2.188-2.188H107.016a2.186,2.186,0,0,1,2.188,2.188V56.765A2.188,2.188,0,0,1,107.016,58.955ZM6.375,54.579h98.453V34.9H6.375Z" transform="translate(-1.999 -30.524)"/></g><g transform="translate(4.373 39.417)"><path class="a" d="M107.016,47.976H4.187A2.187,2.187,0,0,1,2.64,44.241L26.717,20.158a2.182,2.182,0,0,1,1.547-.641H131.093a2.187,2.187,0,0,1,1.547,3.735L108.563,47.335a2.178,2.178,0,0,1-1.547.641ZM9.469,43.6h96.642l19.7-19.709H29.17Z" transform="translate(-1.999 -19.517)"/></g><g transform="translate(107.202 63.478)"><path class="a" d="M51.184,58.967a2.188,2.188,0,0,1-1.547-3.735L73.716,31.155a2.188,2.188,0,0,1,3.094,3.094L52.731,58.326a2.182,2.182,0,0,1-1.547.641Z" transform="translate(-48.996 -30.514)"/></g><g transform="translate(131.282 39.419)"><path class="a" d="M62.189,47.953A2.186,2.186,0,0,1,60,45.765V21.706a2.188,2.188,0,0,1,4.376,0V45.765A2.187,2.187,0,0,1,62.189,47.953Z" transform="translate(-60.001 -19.518)"/></g><g transform="translate(28.451 39.419)"><path class="a" d="M15.191,47.975A2.186,2.186,0,0,1,13,45.787V21.706a2.188,2.188,0,0,1,4.376,0V45.791A2.184,2.184,0,0,1,15.191,47.975Z" transform="translate(-13.003 -19.518)"/></g><g transform="translate(4.373 104.998)"><path class="a" d="M107.016,77.951H4.187A2.187,2.187,0,0,1,2.64,74.217L26.717,50.131a2.173,2.173,0,0,1,1.547-.641H131.093a2.187,2.187,0,0,1,1.547,3.735L108.563,77.31a2.178,2.178,0,0,1-1.547.641ZM9.469,73.575h96.642l19.7-19.709H29.17Z" transform="translate(-1.999 -49.49)"/></g><g transform="translate(28.451 104.998)"><path class="a" d="M15.191,77.943A2.186,2.186,0,0,1,13,75.755V51.678a2.188,2.188,0,0,1,4.376,0V75.755a2.186,2.186,0,0,1-2.188,2.188Z" transform="translate(-13.003 -49.49)"/></g><g transform="translate(67.828)"><path class="a" d="M33.188,69.387A2.186,2.186,0,0,1,31,67.2V3.69a2.188,2.188,0,0,1,4.376,0V67.2A2.185,2.185,0,0,1,33.188,69.387Z" transform="translate(-31 -1.502)"/></g><g transform="translate(83.146 8.748)"><path class="a" d="M40.189,29.568A2.186,2.186,0,0,1,38,27.38V7.688a2.188,2.188,0,1,1,4.376,0V27.38A2.185,2.185,0,0,1,40.189,29.568Z" transform="translate(-38.001 -5.5)"/></g><g transform="translate(83.144 24.063)"><path class="a" d="M40.19,21.252a2.188,2.188,0,0,1-1.547-3.735l4.376-4.376a2.188,2.188,0,1,1,3.094,3.094l-4.376,4.376A2.187,2.187,0,0,1,40.19,21.252Z" transform="translate(-38 -12.5)"/></g><g transform="translate(78.768 24.063)"><path class="a" d="M42.566,21.252a2.178,2.178,0,0,1-1.547-.641l-4.376-4.376a2.188,2.188,0,1,1,3.094-3.094l4.376,4.376a2.188,2.188,0,0,1-1.547,3.735Z" transform="translate(-36 -12.5)"/></g><g transform="translate(52.483 8.748)"><path class="a" d="M26.175,29.568a2.186,2.186,0,0,1-2.188-2.188V7.688a2.188,2.188,0,1,1,4.376,0V27.38A2.186,2.186,0,0,1,26.175,29.568Z" transform="translate(-23.987 -5.5)"/></g><g transform="translate(52.483 24.063)"><path class="a" d="M26.175,21.252a2.188,2.188,0,0,1-1.547-3.735L29,13.141A2.188,2.188,0,0,1,32.1,16.235l-4.376,4.376a2.191,2.191,0,0,1-1.547.641Z" transform="translate(-23.987 -12.5)"/></g><g transform="translate(48.107 24.063)"><path class="a" d="M28.551,21.252A2.182,2.182,0,0,1,27,20.611l-4.376-4.376a2.188,2.188,0,0,1,3.094-3.094L30.1,17.517a2.188,2.188,0,0,1-1.547,3.735Z" transform="translate(-21.987 -12.5)"/></g></g></svg>