<svg xmlns="http://www.w3.org/2000/svg" width="122.267" height="122.267" viewBox="0 0 122.267 122.267"><defs><style>.a{fill:#6d6c6c;}</style></defs><g transform="translate(0 0)"><g transform="translate(70.994)"><path class="a" d="M63.142,1H57.914A15.224,15.224,0,0,0,45.671,7.153l-1.438.361A9.532,9.532,0,0,0,37,16.776c0,4.252,2.006,9.821,2.09,10.057l.454,1.248a5.9,5.9,0,0,1,5.344-3.418H46.86l.008.146a7.884,7.884,0,0,1,5.967-7.555l1.913-.479a3.943,3.943,0,0,0,3.944,3.944h7.888a3.943,3.943,0,0,1,3.944,3.944H72.5a5.916,5.916,0,0,1,5.441,3.593h.041L79.5,23.7A17.242,17.242,0,0,0,63.142,1Z" transform="translate(-37 -1)"/></g><g transform="translate(23.665 27.609)"><path class="a" d="M22.86,15v9.86H13v13.8H40.609V15Z" transform="translate(-13 -15)"/></g><g transform="translate(0 7.888)"><path class="a" d="M110.585,48.178l-4.757-.951a3.934,3.934,0,0,1-3.094-3.094l-.874-4.368a13.888,13.888,0,0,0,4.279-5.183h1.351a7.888,7.888,0,1,0,0-15.776h-.363a5.908,5.908,0,0,0-5.553-3.944H93.687a1.972,1.972,0,0,1,0-3.944h1.972V6.972H93.687a5.926,5.926,0,0,0-5.7,4.321l-.639.16A9.823,9.823,0,0,0,80.164,18.8h-.282a7.888,7.888,0,0,0,0,15.776h1.351a13.888,13.888,0,0,0,4.279,5.183l-.874,4.368a3.936,3.936,0,0,1-3.094,3.094l-4.757.951a15.7,15.7,0,0,0-7.863,4.151H8.888V8.944H72.877A9.513,9.513,0,0,1,76.177,5H4.944V56.273H24.111L21.152,68.106H1V72.05H123.267v-8.4a15.816,15.816,0,0,0-12.682-15.467Zm-30.7-17.541a3.944,3.944,0,1,1,0-7.888v5.916a13.855,13.855,0,0,0,.158,1.972ZM94.237,56.273h-1.1l-.777-2.329,1.327-1.061,1.327,1.061Zm-5.159.3.611,1.834-.828,4.968-2.209-4.861Zm4.307,3.646h.6L95.3,68.106H92.07Zm4.3-1.812.611-1.834,2.426,1.941-2.209,4.861Zm6.518-7.549-1.8,3.952-5.08-4.064L101,48.91a7.888,7.888,0,0,0,3.207,1.946Zm7.233-24.164a3.948,3.948,0,0,1-3.944,3.944h-.158a13.854,13.854,0,0,0,.158-1.972V22.749A3.948,3.948,0,0,1,111.435,26.693ZM83.826,28.665V21.019a5.91,5.91,0,0,1,4.453-5.733A5.922,5.922,0,0,0,93.687,18.8h7.888a1.974,1.974,0,0,1,1.972,1.972v7.888a9.86,9.86,0,0,1-19.721,0Zm9.86,13.8a13.683,13.683,0,0,0,4.538-.783l.645,3.218c.039.2.106.385.16.576l-5.342,2.672-5.342-2.67c.053-.191.12-.379.16-.576l.645-3.218A13.732,13.732,0,0,0,93.687,42.469Zm-7.308,6.439,3.67,1.834-5.08,4.064-1.8-3.952a7.845,7.845,0,0,0,3.207-1.946Zm-8.817,3.136,1.666-.333,7.452,16.4H68.05V63.645a11.864,11.864,0,0,1,9.511-11.6Zm-20.789,4.23h9.188a15.681,15.681,0,0,0-1.854,7.372v4.461H59.73ZM55.663,68.106H35.079l2.958-11.832H52.705ZM28.177,56.273h5.794L31.013,68.106H25.219Zm91.146,11.832h-18.63l7.452-16.4,1.666.333a11.864,11.864,0,0,1,9.511,11.6Z" transform="translate(-1 -5)"/><path class="a" d="M30.888,26.776v3.944H46.665V11H23v7.888h3.944V14.944H42.721V26.776Z" transform="translate(20.385 0.832)"/><path class="a" d="M30.665,32.665V9H7V32.665ZM10.944,12.944H26.721V28.721H10.944Z" transform="translate(4.832 -1.112)"/><path class="a" d="M110.427,65.359A13.849,13.849,0,0,0,115.379,54.8V52.832A11.844,11.844,0,0,0,103.547,41H99.6A11.844,11.844,0,0,0,87.77,52.832V54.8a13.851,13.851,0,0,0,4.95,10.554,17.673,17.673,0,0,0-10.88,8.933A17.816,17.816,0,0,0,71,65.373,13.776,13.776,0,0,0,75.938,54.8V52.832A11.844,11.844,0,0,0,64.106,41H60.162A11.844,11.844,0,0,0,48.329,52.832V54.8a13.776,13.776,0,0,0,4.942,10.568,17.807,17.807,0,0,0-10.85,8.933,17.83,17.83,0,0,0-10.852-8.945A13.775,13.775,0,0,0,36.5,54.8V50.86A9.871,9.871,0,0,0,26.637,41h-13.8a3.948,3.948,0,0,0-3.944,3.944V54.8A13.776,13.776,0,0,0,13.83,65.373,17.769,17.769,0,0,0,1,82.413v1.972H123.267V82.413A17.7,17.7,0,0,0,110.427,65.359Zm-4.908,3.25a3.944,3.944,0,0,1-7.888,0,3.885,3.885,0,0,1,.077-.57,13.405,13.405,0,0,0,7.734,0A3.885,3.885,0,0,1,105.519,68.609Zm-13.8-13.8V52.832A7.9,7.9,0,0,1,99.6,44.944h3.944a7.9,7.9,0,0,1,7.888,7.888V54.8a9.86,9.86,0,0,1-19.721,0Zm-39.441,0V52.832a7.9,7.9,0,0,1,7.888-7.888h3.944a7.9,7.9,0,0,1,7.888,7.888V54.8a9.86,9.86,0,1,1-19.721,0Zm5.916,13.8h7.888A13.815,13.815,0,0,1,79.724,80.441H44.543A13.815,13.815,0,0,1,58.19,68.609ZM12.832,54.8v-9.86h13.8a5.923,5.923,0,0,1,5.916,5.916V54.8a9.86,9.86,0,0,1-19.721,0ZM5.084,80.441A13.826,13.826,0,0,1,18.749,68.609h7.888A13.826,13.826,0,0,1,40.3,80.441Zm78.9,0a13.751,13.751,0,0,1,9.762-11.276,7.849,7.849,0,0,0,15.664,0,13.757,13.757,0,0,1,9.777,11.272Z" transform="translate(-1 29.994)"/></g></g></svg>